#!OML:ASF G:\JayActor3\Patient Classification 1\Patient 1\Session 6\male.ASF
:FULLY-SPECIFIED
:DEGREES
2003
root -6.10587 15.0352 11.29 -169.95 12.8762 187.213
lowerback 30.8558 -4.09468 2.2131
upperback 9.97941 -1.5876 5.21637
thorax -5.53024 0.205464 5.0229
lowerneck 10.4837 8.56222 9.67997
upperneck -17.4682 10.914 -17.3866
head -5.3406 6.43873 -7.9262
rclavicle -6.98728e-014 -3.70733e-014
rhumerus -32.0855 -9.20948 -73.0772
rradius 128.583
rwrist 14.1865
rhand 14.1763 -19.1331
rfingers 7.12502
rthumb 39.0757 -44.6314
lclavicle -6.98728e-014 -3.70733e-014
lhumerus -18.2407 -29.613 78.9174
lradius 124.652
lwrist 11.6382
lhand 2.17345 39.4762
lfingers 7.12502
lthumb 27.6705 67.4609
rfemur -38.1945 9.7319 2.88931
rtibia 46.6762
rfoot -17.0145 -4.41907
rtoes -23.4098
lfemur -48.422 26.2879 -20.0954
ltibia 65.9887
lfoot -26.5186 5.77376
ltoes -5.9347
2004
root -6.06573 15.0321 11.3211 -170.007 11.8318 187.235
lowerback 30.9364 -4.03029 2.11234
upperback 9.96919 -1.51415 5.16096
thorax -5.5827 0.249913 4.99531
lowerneck 10.4019 8.57711 9.60817
upperneck -17.4536 10.9147 -17.4488
head -5.32193 6.4491 -7.9285
rclavicle 3.47873e-015 -4.94974e-014
rhumerus -32.0098 -9.04434 -73.0247
rradius 128.538
rwrist 14.066
rhand 14.4217 -19.2363
rfingers 7.12502
rthumb 39.307 -44.6676
lclavicle 3.47873e-015 -4.94974e-014
lhumerus -18.1146 -29.3797 78.7156
lradius 124.629
lwrist 11.716
lhand 2.18375 39.4474
lfingers 7.12502
lthumb 27.6803 67.4305
rfemur -38.0022 9.20742 3.19077
rtibia 47.0468
rfoot -17.2852 -4.75471
rtoes -23.4208
lfemur -48.6708 25.8307 -19.9203
ltibia 65.9816
lfoot -26.2954 5.29703
ltoes -5.92285
2005
root -6.02489 15.0289 11.3517 -170.048 10.7823 187.265
lowerback 31.0266 -3.97449 2.0641
upperback 9.94064 -1.44167 5.08057
thorax -5.66326 0.293401 4.90981
lowerneck 10.3526 8.58466 9.52409
upperneck -17.4647 10.9133 -17.4336
head -5.32351 6.45305 -7.90782
rclavicle 1.30204e-014 2.98177e-014
rhumerus -31.9745 -8.90294 -73.0049
rradius 128.498
rwrist 14.0007
rhand 14.6427 -19.3467
rfingers 7.12502
rthumb 39.5152 -44.7171
lclavicle 1.30204e-014 2.98177e-014
lhumerus -17.9966 -29.175 78.4724
lradius 124.614
lwrist 11.7752
lhand 2.25917 39.4006
lfingers 7.12502
lthumb 27.7524 67.3721
rfemur -37.828 8.6362 3.51012
rtibia 47.4187
rfoot -17.556 -5.05778
rtoes -23.3589
lfemur -48.9386 25.3687 -19.7451
ltibia 65.9705
lfoot -26.0737 4.83684
ltoes -5.92575
2006
root -5.98345 15.0256 11.3814 -170.081 9.73626 187.31
lowerback 31.1186 -3.92726 2.05835
upperback 9.90724 -1.37056 4.98078
thorax -5.75211 0.336389 4.77799
lowerneck 10.3524 8.58231 9.43353
upperneck -17.5336 10.9042 -17.3617
head -5.35692 6.45107 -7.87525
rclavicle -3.37437e-014 1.60022e-014
rhumerus -31.9561 -8.78414 -73.016
rradius 128.466
rwrist 13.9382
rhand 14.8842 -19.4607
rfingers 7.12502
rthumb 39.7426 -44.7638
lclavicle -3.37437e-014 1.60022e-014
lhumerus -17.8748 -28.9885 78.1957
lradius 124.604
lwrist 11.8029
lhand 2.33217 39.3506
lfingers 7.12502
lthumb 27.8222 67.3108
rfemur -37.6678 8.0344 3.85116
rtibia 47.7912
rfoot -17.8225 -5.35533
rtoes -23.2872
lfemur -49.2124 24.9043 -19.5612
ltibia 65.9554
lfoot -25.8643 4.38396
ltoes -5.966
2007
root -5.94244 15.0221 11.41 -170.105 8.68379 187.355
lowerback 31.1956 -3.89306 2.08971
upperback 9.87422 -1.30748 4.86916
thorax -5.83455 0.375668 4.61323
lowerneck 10.3846 8.57685 9.32681
upperneck -17.6484 10.8935 -17.2466
head -5.41449 6.44747 -7.83171
rclavicle -3.62782e-014 5.37713e-014
rhumerus -31.9388 -8.6867 -73.0431
rradius 128.432
rwrist 13.9
rhand 15.1379 -19.5411
rfingers 7.12502
rthumb 39.9815 -44.7727
lclavicle -3.62782e-014 5.37713e-014
lhumerus -17.7404 -28.8159 77.9036
lradius 124.596
lwrist 11.7752
lhand 2.33713 39.306
lfingers 7.12502
lthumb 27.827 67.2655
rfemur -37.5213 7.39275 4.19685
rtibia 48.1629
rfoot -18.0834 -5.65169
rtoes -23.2163
lfemur -49.4972 24.4137 -19.384
ltibia 65.9358
lfoot -25.6695 3.94201
ltoes -6.03778
